HIERARCHY
ROOT ui
{
	 OFFSET 0 0 0
	 CHANNELS 3 XPosition YPosition Z Position
	 EndSite
	 {
	 OFFSET 0 -1 0
	 }
}
ROOT li
{
	 OFFSET 0 0 0
	 CHANNELS 3 XPosition YPosition Z Position
	 EndSite
	 {
	 OFFSET 0 -1 0
	 }
}
ROOT ul
{
	 OFFSET 0 0 0
	 CHANNELS 3 XPosition YPosition Z Position
	 EndSite
	 {
	 OFFSET 0 -1 0
	 }
}
ROOT ll
{
	 OFFSET 0 0 0
	 CHANNELS 3 XPosition YPosition Z Position
	 EndSite
	 {
	 OFFSET 0 -1 0
	 }
}
ROOT tt
{
	 OFFSET 0 0 0
	 CHANNELS 3 XPosition YPosition Z Position
	 EndSite
	 {
	 OFFSET 0 -1 0
	 }
}
ROOT tb
{
	 OFFSET 0 0 0
	 CHANNELS 3 XPosition YPosition Z Position
	 EndSite
	 {
	 OFFSET 0 -1 0
	 }
}
ROOT td
{
	 OFFSET 0 0 0
	 CHANNELS 3 XPosition YPosition Z Position
	 EndSite
	 {
	 OFFSET 0 -1 0
	 }
}
ROOT v
{
	 OFFSET 0 0 0
	 CHANNELS 3 XPosition YPosition Z Position
	 EndSite
	 {
	 OFFSET 0 -1 0
	 }
}
ROOT bn
{
	 OFFSET 0 0 0
	 CHANNELS 3 XPosition YPosition Z Position
	 EndSite
	 {
	 OFFSET 0 -1 0
	 }
}
MOTION
Frames: 19
Frame Time: 0.002
-0.005385147094726562	-0.002725827932357788	0		0.60404345703125	-2.49447705078125	0		-1.0568936767578125	0.10159461212158204	0		-0.5978831176757813	-2.67385791015625	0		2.41278759765625	-0.26826129150390626	0		3.884988037109375	-0.58913232421875	0		5.09487451171875	-0.47688299560546876	0		5.9384462890625	0.456146240234375	0		-0.10017691040039063	5.94345947265625	0		
-0.0062987680435180665	0.005066831111907959	0		0.5800435791015625	-2.48933740234375	0		-1.1027069091796875	0.1161031494140625	0		-0.6556491088867188	-2.653171630859375	0		2.420318603515625	-0.2316375732421875	0		3.883142333984375	-0.5763910522460938	0		5.07898583984375	-0.46694464111328127	0		5.93841650390625	0.455822998046875	0		-0.10011348724365235	5.9432392578125	0		
0.01561270523071289	4.955590069293976E-4	0		0.5970620727539062	-2.48384375	0		-1.0297994384765625	0.11076060485839843	0		-0.6197760620117188	-2.656947998046875	0		2.4377236328125	-0.20418270874023436	0		3.883107177734375	-0.5766973266601563	0		5.07661083984375	-0.48924066162109375	0		5.92527880859375	0.4476793823242188	0		-0.06691555786132812	5.94949755859375	0		
-0.005450467109680176	-0.0034131860733032228	0		0.5710386352539063	-2.48168798828125	0		-1.0687957763671876	0.11115442657470703	0		-0.6198375244140625	-2.657170166015625	0		2.428308349609375	-0.16632069396972657	0		3.86243603515625	-0.5546936645507813	0		5.07556591796875	-0.491571533203125	0		5.9211455078125	0.43837753295898435	0		-0.0667890625	5.94926318359375	0		
0.015631451606750488	1.9131999462842943E-5	0		0.5989987182617188	-2.4823779296875	0		-1.0728328857421876	0.10700265502929687	0		-0.6558270263671875	-2.65383447265625	0		2.425654296875	-0.14557382202148436	0		3.890270263671875	-0.5664601440429687	0		5.075576171875	-0.4919315185546875	0		5.926037109375	0.4289206848144531	0		-0.06939189910888671	5.96406982421875	0		
-0.006251500129699707	0.004119781017303467	0		0.5521809692382813	-2.469902587890625	0		-1.1077115478515625	0.1113338165283203	0		-0.649749267578125	-2.648154541015625	0		2.45205859375	-0.12328598022460938	0		3.891869873046875	-0.5308204956054687	0		5.0745693359375	-0.4952857971191406	0		5.92222509765625	0.43659039306640623	0		-0.06918930053710938	5.96382958984375	0		
0.024750911712646484	-0.00160658597946167	0		0.5972874755859375	-2.4648642578125	0		-1.0296337890625	0.10990113067626953	0		-0.6606094360351562	-2.640208251953125	0		2.447625244140625	-0.09251949310302734	0		3.872785888671875	-0.5408685913085938	0		5.08152978515625	-0.502772705078125	0		5.90919775390625	0.4283937683105469	0		-0.08608383178710938	5.95485595703125	0		
-0.010111439704895019	-2.995589971542358E-4	0		0.54034228515625	-2.464228759765625	0		-1.04455810546875	0.10692510223388672	0		-0.62868017578125	-2.6479306640625	0		2.437882568359375	-0.08367391967773438	0		3.844111328125	-0.5267662353515625	0		5.0616513671875	-0.5018440856933594	0		5.90932763671875	0.42798562622070313	0		-0.08579731750488281	5.95461767578125	0		
0.01603568649291992	-9.449599981307984E-4	0		0.5933340454101562	-2.470313720703125	0		-1.0543875732421875	0.10787572479248046	0		-0.675430419921875	-2.636412841796875	0		2.477245361328125	-0.0705982666015625	0		3.863117919921875	-0.5354158935546875	0		5.05769287109375	-0.5081691589355469	0		5.89249267578125	0.427838623046875	0		-0.10162420654296875	5.94463525390625	0		
-0.009780320167541504	-7.688990235328675E-4	0		0.5425697631835937	-2.461763427734375	0		-1.0542034912109375	0.10767620849609374	0		-0.6305421142578125	-2.65033056640625	0		2.465645751953125	-0.056721168518066405	0		3.842630615234375	-0.5134415283203125	0		5.05681103515625	-0.511543701171875	0		5.89754443359375	0.41834429931640627	0		-0.07091507720947265	5.965931640625	0		
0.020471372604370118	0.0015325109958648682	0		0.5737255859375	-2.46049560546875	0		-1.0539918212890624	0.10748487854003906	0		-0.6752095336914062	-2.636827880859375	0		2.49705322265625	-0.04451717758178711	0		3.85764697265625	-0.5250270385742187	0		5.0621435546875	-0.5030134887695312	0		5.90676513671875	0.4177852783203125	0		-0.07051313018798828	5.9657080078125	0		
-0.0052782859802246096	0.002725740909576416	0		0.5660335083007813	-2.4506064453125	0		-1.065597412109375	0.11749175262451172	0		-0.6598472290039062	-2.6232607421875	0		2.500282470703125	-0.044864852905273436	0		3.864017822265625	-0.5154688720703124	0		5.058263671875	-0.5093356628417969	0		5.89801171875	0.4175130920410156	0		-0.07105054473876952	5.96750927734375	0		
0.016904319763183594	-0.0018280659914016724	0		0.5621354370117188	-2.45476806640625	0		-1.06940771484375	0.1133858871459961	0		-0.6956522216796875	-2.62087451171875	0		2.507592041015625	-0.04126791763305664	0		3.851266357421875	-0.5146015625	0		5.0643515625	-0.5188087768554688	0		5.9021474609375	0.409042724609375	0		-0.07059771728515625	5.9673056640625	0		
-0.004770907878875732	0.002325782060623169	0		0.5554840087890625	-2.4438720703125	0		-1.0691451416015625	0.11322895050048828	0		-0.6554581298828125	-2.619679443359375	0		2.49077197265625	-0.046278942108154295	0		3.8515068359375	-0.5149297485351563	0		5.068734375	-0.5102437744140625	0		5.89442138671875	0.40877017211914063	0		-0.07111549377441406	5.96812939453125	0		
-0.0085738525390625	-0.0017907550334930419	0		0.5385648193359375	-2.449801513671875	0		-1.068881103515625	0.11308574676513672	0		-0.7132669677734375	-2.617914794921875	0		2.480095458984375	-0.04237297821044922	0		3.83959130859375	-0.525053955078125	0		5.05483544921875	-0.519379150390625	0		5.88182470703125	0.41658767700195315	0		-0.06966144561767579	5.966935546875	0		
-3.3779901266098024E-4	-0.003084000110626221	0		0.551665771484375	-2.454193359375	0		-1.09849267578125	0.1214345474243164	0		-0.6781428833007812	-2.620613525390625	0		2.515975830078125	-0.06619779968261719	0		3.874267822265625	-0.4979015197753906	0		5.07401953125	-0.5230267333984375	0		5.89109130859375	0.41606982421875	0		-0.054023727416992184	5.97753125	0		
-0.004019033908843994	0.0018292989730834962	0		0.5371546020507812	-2.4331259765625	0		-1.0552073974609375	0.12363628387451171	0		-0.6956596069335937	-2.59945458984375	0		2.5022138671875	-0.06621336364746094	0		3.840381103515625	-0.5046448669433594	0		5.06352880859375	-0.5051832275390625	0		5.882345703125	0.4158547058105469	0		-0.0697309341430664	5.96764013671875	0		
-0.003801661968231201	0.0016974380016326904	0		0.5581389770507813	-2.442612060546875	0		-0.98712255859375	0.11445404815673828	0		-0.6735211181640625	-2.598914306640625	0		2.5162509765625	-0.07765670013427735	0		3.854578857421875	-0.5051370239257813	0		5.06963134765625	-0.5115898132324219	0		5.8745625	0.414642578125	0		-0.07028616333007813	5.9685263671875	0		
-0.007674867153167724	-0.002350020885467529	0		0.5312788696289062	-2.44031103515625	0		-1.069837158203125	0.12070759582519532	0		-0.6774860229492188	-2.60293798828125	0		2.492505859375	-0.07347311401367188	0		3.853799560546875	-0.5023694763183594	0		5.06565966796875	-0.5208154296875	0		5.878638671875	0.4062601013183594	0		-0.06988541412353516	5.96841650390625	0		
